<?xml version="1.0" encoding="UTF-8"?>
<svg width="551px" height="539px" viewBox="0 0 551 539" version="1.1" xmlns="http://www.w3.org/2000/svg" xmlns:xlink="http://www.w3.org/1999/xlink">
    <!-- Generator: Sketch 42 (36781) - http://www.bohemiancoding.com/sketch -->
    <title>Group 2</title>
    <desc>Created with Sketch.</desc>
    <defs></defs>
    <g id="Page-1" stroke="none" stroke-width="1" fill="none" fill-rule="evenodd">
        <g id="LA-Data" transform="translate(-720.000000, -563.000000)">
            <g id="Group-2" transform="translate(720.000000, 563.000000)">
                <ellipse id="Oval-Copy-4" fill="#0196B4" cx="169" cy="169" rx="169" ry="169"></ellipse>
                <ellipse id="Oval-Copy-5" fill="#71D9EC" cx="170" cy="421" rx="83" ry="83"></ellipse>
                <circle id="Oval-Copy-6" fill="#26CCED" cx="407.5" cy="169.5" r="69.5"></circle>
                <circle id="Oval-Copy-7" fill="#00AED0" cx="401" cy="389" r="150"></circle>
                <path d="M154.145508,194.438477 L155.736328,194.438477 L155.736328,196.152344 L154.145508,196.152344 L154.145508,199 L152.009766,199 L152.009766,196.152344 L146.481445,196.152344 L146.419922,194.851562 L151.939453,186.203125 L154.145508,186.203125 L154.145508,194.438477 Z M148.661133,194.438477 L152.009766,194.438477 L152.009766,189.094727 L151.851562,189.375977 L148.661133,194.438477 Z M158.619141,196.75 C159.01758,196.75 159.325194,196.862792 159.541992,197.088379 C159.75879,197.313966 159.867188,197.596678 159.867188,197.936523 C159.867188,198.270509 159.75879,198.547362 159.541992,198.76709 C159.325194,198.986818 159.01758,199.09668 158.619141,199.09668 C158.238279,199.09668 157.936525,198.988282 157.713867,198.771484 C157.49121,198.554686 157.379883,198.276369 157.379883,197.936523 C157.379883,197.596678 157.48828,197.313966 157.705078,197.088379 C157.921876,196.862792 158.226561,196.75 158.619141,196.75 Z M167.961914,199 L165.834961,199 L165.834961,188.725586 L162.697266,189.797852 L162.697266,187.996094 L167.689453,186.15918 L167.961914,186.15918 L167.961914,199 Z M180.46875,189.578125 C180.46875,190.205081 180.307619,190.763181 179.985352,191.252441 C179.663084,191.741702 179.223636,192.126952 178.666992,192.408203 C179.334964,192.718752 179.849119,193.143552 180.209473,193.682617 C180.569826,194.221682 180.75,194.831051 180.75,195.510742 C180.75,196.635748 180.369144,197.527829 179.607422,198.187012 C178.845699,198.846195 177.832038,199.175781 176.566406,199.175781 C175.294916,199.175781 174.276859,198.84473 173.512207,198.182617 C172.747555,197.520505 172.365234,196.629888 172.365234,195.510742 C172.365234,194.825192 172.546873,194.209964 172.910156,193.665039 C173.273439,193.120114 173.7832,192.701173 174.439453,192.408203 C173.888669,192.126952 173.453615,191.741702 173.134277,191.252441 C172.81494,190.763181 172.655273,190.205081 172.655273,189.578125 C172.655273,188.488276 173.006832,187.624027 173.709961,186.985352 C174.413089,186.346676 175.362299,186.027344 176.557617,186.027344 C177.758795,186.027344 178.710934,186.346676 179.414062,186.985352 C180.117191,187.624027 180.46875,188.488276 180.46875,189.578125 Z M178.614258,195.405273 C178.614258,194.772458 178.425295,194.261232 178.047363,193.871582 C177.669432,193.481932 177.169925,193.287109 176.548828,193.287109 C175.927731,193.287109 175.431154,193.480467 175.059082,193.867188 C174.68701,194.253908 174.500977,194.766598 174.500977,195.405273 C174.500977,196.03223 174.68408,196.533201 175.050293,196.908203 C175.416506,197.283205 175.921872,197.470703 176.566406,197.470703 C177.210941,197.470703 177.713377,197.289064 178.07373,196.925781 C178.434084,196.562498 178.614258,196.055667 178.614258,195.405273 Z M178.341797,189.657227 C178.341797,189.100583 178.180666,188.642092 177.858398,188.281738 C177.536131,187.921385 177.102542,187.741211 176.557617,187.741211 C176.012693,187.741211 175.582033,187.912596 175.265625,188.255371 C174.949217,188.598146 174.791016,189.065427 174.791016,189.657227 C174.791016,190.243167 174.950682,190.708983 175.27002,191.054688 C175.589357,191.400392 176.021482,191.573242 176.566406,191.573242 C177.111331,191.573242 177.543455,191.400392 177.862793,191.054688 C178.182131,190.708983 178.341797,190.243167 178.341797,189.657227 Z M182.982422,199 L182.982422,186.203125 L187.368164,186.203125 C188.815437,186.203125 189.916988,186.493161 190.672852,187.073242 C191.428715,187.653323 191.806641,188.517572 191.806641,189.666016 C191.806641,190.251956 191.648439,190.779295 191.332031,191.248047 C191.015623,191.716799 190.552737,192.080077 189.943359,192.337891 C190.634769,192.525392 191.169432,192.878415 191.547363,193.396973 C191.925295,193.91553 192.114258,194.538082 192.114258,195.264648 C192.114258,196.465826 191.729008,197.388669 190.958496,198.033203 C190.187984,198.677738 189.084968,199 187.649414,199 L182.982422,199 Z M185.206055,193.225586 L185.206055,197.224609 L187.675781,197.224609 C188.37305,197.224609 188.917967,197.05176 189.310547,196.706055 C189.703127,196.36035 189.899414,195.879886 189.899414,195.264648 C189.899414,193.934564 189.219733,193.254883 187.860352,193.225586 L185.206055,193.225586 Z M185.206055,191.59082 L187.385742,191.59082 C188.077152,191.59082 188.617674,191.434084 189.007324,191.120605 C189.396975,190.807127 189.591797,190.363284 189.591797,189.789062 C189.591797,189.156247 189.411623,188.69922 189.05127,188.417969 C188.690916,188.136717 188.129887,187.996094 187.368164,187.996094 L185.206055,187.996094 L185.206055,191.59082 Z" id="4.18B" fill="#FFFFFF" opacity="0.535495924"></path>
                <path d="M381.390625,401.625977 L382.691406,401.625977 C383.34766,401.620117 383.867674,401.450197 384.251465,401.116211 C384.635256,400.782225 384.827148,400.298831 384.827148,399.666016 C384.827148,399.056638 384.667482,398.583498 384.348145,398.246582 C384.028807,397.909666 383.541019,397.741211 382.884766,397.741211 C382.310544,397.741211 381.838869,397.906737 381.469727,398.237793 C381.100584,398.568849 380.916016,399.000974 380.916016,399.53418 L378.780273,399.53418 C378.780273,398.877926 378.954588,398.280276 379.303223,397.741211 C379.651857,397.202146 380.13818,396.78174 380.762207,396.47998 C381.386234,396.178221 382.084957,396.027344 382.858398,396.027344 C384.135749,396.027344 385.139157,396.348141 385.868652,396.989746 C386.598148,397.631351 386.962891,398.523432 386.962891,399.666016 C386.962891,400.240237 386.779787,400.780759 386.413574,401.287598 C386.047361,401.794436 385.574222,402.176757 384.994141,402.43457 C385.697269,402.674806 386.231932,403.052732 386.598145,403.568359 C386.964357,404.083987 387.147461,404.699215 387.147461,405.414062 C387.147461,406.562506 386.753422,407.476559 385.965332,408.15625 C385.177242,408.835941 384.141608,409.175781 382.858398,409.175781 C381.627924,409.175781 380.620121,408.84766 379.834961,408.191406 C379.049801,407.535153 378.657227,406.662115 378.657227,405.572266 L380.792969,405.572266 C380.792969,406.134768 380.981932,406.591795 381.359863,406.943359 C381.737795,407.294924 382.246091,407.470703 382.884766,407.470703 C383.546878,407.470703 384.068357,407.294924 384.449219,406.943359 C384.83008,406.591795 385.020508,406.082035 385.020508,405.414062 C385.020508,404.740231 384.821291,404.221682 384.422852,403.858398 C384.024412,403.495115 383.432621,403.313477 382.647461,403.313477 L381.390625,403.313477 L381.390625,401.625977 Z M390.619141,406.75 C391.01758,406.75 391.325194,406.862792 391.541992,407.088379 C391.75879,407.313966 391.867188,407.596678 391.867188,407.936523 C391.867188,408.270509 391.75879,408.547362 391.541992,408.76709 C391.325194,408.986818 391.01758,409.09668 390.619141,409.09668 C390.238279,409.09668 389.936525,408.988282 389.713867,408.771484 C389.49121,408.554686 389.379883,408.276369 389.379883,407.936523 C389.379883,407.596678 389.48828,407.313966 389.705078,407.088379 C389.921876,406.862792 390.226561,406.75 390.619141,406.75 Z M396.648438,401.625977 L397.949219,401.625977 C398.605472,401.620117 399.125486,401.450197 399.509277,401.116211 C399.893068,400.782225 400.084961,400.298831 400.084961,399.666016 C400.084961,399.056638 399.925295,398.583498 399.605957,398.246582 C399.286619,397.909666 398.798831,397.741211 398.142578,397.741211 C397.568357,397.741211 397.096682,397.906737 396.727539,398.237793 C396.358397,398.568849 396.173828,399.000974 396.173828,399.53418 L394.038086,399.53418 C394.038086,398.877926 394.212401,398.280276 394.561035,397.741211 C394.90967,397.202146 395.395993,396.78174 396.02002,396.47998 C396.644046,396.178221 397.34277,396.027344 398.116211,396.027344 C399.393561,396.027344 400.396969,396.348141 401.126465,396.989746 C401.855961,397.631351 402.220703,398.523432 402.220703,399.666016 C402.220703,400.240237 402.037599,400.780759 401.671387,401.287598 C401.305174,401.794436 400.832034,402.176757 400.251953,402.43457 C400.955082,402.674806 401.489744,403.052732 401.855957,403.568359 C402.22217,404.083987 402.405273,404.699215 402.405273,405.414062 C402.405273,406.562506 402.011234,407.476559 401.223145,408.15625 C400.435055,408.835941 399.39942,409.175781 398.116211,409.175781 C396.885736,409.175781 395.877934,408.84766 395.092773,408.191406 C394.307613,407.535153 393.915039,406.662115 393.915039,405.572266 L396.050781,405.572266 C396.050781,406.134768 396.239744,406.591795 396.617676,406.943359 C396.995607,407.294924 397.503903,407.470703 398.142578,407.470703 C398.804691,407.470703 399.32617,407.294924 399.707031,406.943359 C400.087893,406.591795 400.27832,406.082035 400.27832,405.414062 C400.27832,404.740231 400.079104,404.221682 399.680664,403.858398 C399.282225,403.495115 398.690434,403.313477 397.905273,403.313477 L396.648438,403.313477 L396.648438,401.625977 Z M413.013672,409 L404.40918,409 L404.40918,407.532227 L408.671875,402.882812 C409.287112,402.197262 409.725096,401.624514 409.98584,401.164551 C410.246583,400.704588 410.376953,400.243166 410.376953,399.780273 C410.376953,399.170895 410.205568,398.678713 409.862793,398.303711 C409.520018,397.928709 409.058597,397.741211 408.478516,397.741211 C407.787106,397.741211 407.250978,397.952146 406.870117,398.374023 C406.489256,398.795901 406.298828,399.373043 406.298828,400.105469 L404.163086,400.105469 C404.163086,399.326168 404.34033,398.624515 404.694824,398.000488 C405.049318,397.376462 405.556149,396.891603 406.215332,396.545898 C406.874515,396.200194 407.634761,396.027344 408.496094,396.027344 C409.738287,396.027344 410.718258,396.339352 411.436035,396.963379 C412.153812,397.587405 412.512695,398.45019 412.512695,399.551758 C412.512695,400.190433 412.332521,400.85986 411.972168,401.560059 C411.611815,402.260257 411.021488,403.05566 410.201172,403.946289 L407.072266,407.294922 L413.013672,407.294922 L413.013672,409 Z M414.982422,409 L414.982422,396.203125 L419.368164,396.203125 C420.815437,396.203125 421.916988,396.493161 422.672852,397.073242 C423.428715,397.653323 423.806641,398.517572 423.806641,399.666016 C423.806641,400.251956 423.648439,400.779295 423.332031,401.248047 C423.015623,401.716799 422.552737,402.080077 421.943359,402.337891 C422.634769,402.525392 423.169432,402.878415 423.547363,403.396973 C423.925295,403.91553 424.114258,404.538082 424.114258,405.264648 C424.114258,406.465826 423.729008,407.388669 422.958496,408.033203 C422.187984,408.677738 421.084968,409 419.649414,409 L414.982422,409 Z M417.206055,403.225586 L417.206055,407.224609 L419.675781,407.224609 C420.37305,407.224609 420.917967,407.05176 421.310547,406.706055 C421.703127,406.36035 421.899414,405.879886 421.899414,405.264648 C421.899414,403.934564 421.219733,403.254883 419.860352,403.225586 L417.206055,403.225586 Z M417.206055,401.59082 L419.385742,401.59082 C420.077152,401.59082 420.617674,401.434084 421.007324,401.120605 C421.396975,400.807127 421.591797,400.363284 421.591797,399.789062 C421.591797,399.156247 421.411623,398.69922 421.05127,398.417969 C420.690916,398.136717 420.129887,397.996094 419.368164,397.996094 L417.206055,397.996094 L417.206055,401.59082 Z" id="3.32B" fill="#FFFFFF" opacity="0.535495924"></path>
                <path d="M393.261719,197.612305 C393.261719,199.452158 392.917484,200.839351 392.229004,201.773926 C391.540524,202.708501 390.493171,203.175781 389.086914,203.175781 C387.704095,203.175781 386.662601,202.720219 385.962402,201.809082 C385.262204,200.897945 384.90332,199.548837 384.885742,197.761719 L384.885742,195.546875 C384.885742,193.707022 385.229977,192.327153 385.918457,191.407227 C386.606937,190.4873 387.65722,190.027344 389.069336,190.027344 C390.469734,190.027344 391.514157,190.475581 392.202637,191.37207 C392.891117,192.268559 393.244141,193.610343 393.261719,195.397461 L393.261719,197.612305 Z M391.125977,195.22168 C391.125977,194.020502 390.961916,193.14014 390.633789,192.580566 C390.305662,192.020993 389.784183,191.741211 389.069336,191.741211 C388.372067,191.741211 387.859377,192.006345 387.53125,192.536621 C387.203123,193.066897 387.030274,193.894526 387.012695,195.019531 L387.012695,197.919922 C387.012695,199.11524 387.179686,200.005856 387.513672,200.591797 C387.847658,201.177737 388.372067,201.470703 389.086914,201.470703 C389.772464,201.470703 390.279295,201.19971 390.607422,200.657715 C390.935549,200.11572 391.108398,199.267584 391.125977,198.113281 L391.125977,195.22168 Z M396.619141,200.75 C397.01758,200.75 397.325194,200.862792 397.541992,201.088379 C397.75879,201.313966 397.867188,201.596678 397.867188,201.936523 C397.867188,202.270509 397.75879,202.547362 397.541992,202.76709 C397.325194,202.986818 397.01758,203.09668 396.619141,203.09668 C396.238279,203.09668 395.936525,202.988282 395.713867,202.771484 C395.49121,202.554686 395.379883,202.276369 395.379883,201.936523 C395.379883,201.596678 395.48828,201.313966 395.705078,201.088379 C395.921876,200.862792 396.226561,200.75 396.619141,200.75 Z M408.695312,191.389648 L403.580078,203 L401.338867,203 L406.445312,191.916992 L399.827148,191.916992 L399.827148,190.203125 L408.695312,190.203125 L408.695312,191.389648 Z M419.013672,203 L410.40918,203 L410.40918,201.532227 L414.671875,196.882812 C415.287112,196.197262 415.725096,195.624514 415.98584,195.164551 C416.246583,194.704588 416.376953,194.243166 416.376953,193.780273 C416.376953,193.170895 416.205568,192.678713 415.862793,192.303711 C415.520018,191.928709 415.058597,191.741211 414.478516,191.741211 C413.787106,191.741211 413.250978,191.952146 412.870117,192.374023 C412.489256,192.795901 412.298828,193.373043 412.298828,194.105469 L410.163086,194.105469 C410.163086,193.326168 410.34033,192.624515 410.694824,192.000488 C411.049318,191.376462 411.556149,190.891603 412.215332,190.545898 C412.874515,190.200194 413.634761,190.027344 414.496094,190.027344 C415.738287,190.027344 416.718258,190.339352 417.436035,190.963379 C418.153812,191.587405 418.512695,192.45019 418.512695,193.551758 C418.512695,194.190433 418.332521,194.85986 417.972168,195.560059 C417.611815,196.260257 417.021488,197.05566 416.201172,197.946289 L413.072266,201.294922 L419.013672,201.294922 L419.013672,203 Z M420.982422,203 L420.982422,190.203125 L425.368164,190.203125 C426.815437,190.203125 427.916988,190.493161 428.672852,191.073242 C429.428715,191.653323 429.806641,192.517572 429.806641,193.666016 C429.806641,194.251956 429.648439,194.779295 429.332031,195.248047 C429.015623,195.716799 428.552737,196.080077 427.943359,196.337891 C428.634769,196.525392 429.169432,196.878415 429.547363,197.396973 C429.925295,197.91553 430.114258,198.538082 430.114258,199.264648 C430.114258,200.465826 429.729008,201.388669 428.958496,202.033203 C428.187984,202.677738 427.084968,203 425.649414,203 L420.982422,203 Z M423.206055,197.225586 L423.206055,201.224609 L425.675781,201.224609 C426.37305,201.224609 426.917967,201.05176 427.310547,200.706055 C427.703127,200.36035 427.899414,199.879886 427.899414,199.264648 C427.899414,197.934564 427.219733,197.254883 425.860352,197.225586 L423.206055,197.225586 Z M423.206055,195.59082 L425.385742,195.59082 C426.077152,195.59082 426.617674,195.434084 427.007324,195.120605 C427.396975,194.807127 427.591797,194.363284 427.591797,193.789062 C427.591797,193.156247 427.411623,192.69922 427.05127,192.417969 C426.690916,192.136717 426.129887,191.996094 425.368164,191.996094 L423.206055,191.996094 L423.206055,195.59082 Z" id="0.72B" fill="#FFFFFF" opacity="0.535495924"></path>
                <path d="M153.704102,440 L151.577148,440 L151.577148,429.725586 L148.439453,430.797852 L148.439453,428.996094 L153.431641,427.15918 L153.704102,427.15918 L153.704102,440 Z M159.619141,437.75 C160.01758,437.75 160.325194,437.862792 160.541992,438.088379 C160.75879,438.313966 160.867188,438.596678 160.867188,438.936523 C160.867188,439.270509 160.75879,439.547362 160.541992,439.76709 C160.325194,439.986818 160.01758,440.09668 159.619141,440.09668 C159.238279,440.09668 158.936525,439.988282 158.713867,439.771484 C158.49121,439.554686 158.379883,439.276369 158.379883,438.936523 C158.379883,438.596678 158.48828,438.313966 158.705078,438.088379 C158.921876,437.862792 159.226561,437.75 159.619141,437.75 Z M171.519531,434.612305 C171.519531,436.452158 171.175296,437.839351 170.486816,438.773926 C169.798336,439.708501 168.750984,440.175781 167.344727,440.175781 C165.961907,440.175781 164.920414,439.720219 164.220215,438.809082 C163.520016,437.897945 163.161133,436.548837 163.143555,434.761719 L163.143555,432.546875 C163.143555,430.707022 163.48779,429.327153 164.17627,428.407227 C164.86475,427.4873 165.915032,427.027344 167.327148,427.027344 C168.727546,427.027344 169.771969,427.475581 170.460449,428.37207 C171.148929,429.268559 171.501953,430.610343 171.519531,432.397461 L171.519531,434.612305 Z M169.383789,432.22168 C169.383789,431.020502 169.219728,430.14014 168.891602,429.580566 C168.563475,429.020993 168.041996,428.741211 167.327148,428.741211 C166.629879,428.741211 166.117189,429.006345 165.789062,429.536621 C165.460936,430.066897 165.288086,430.894526 165.270508,432.019531 L165.270508,434.919922 C165.270508,436.11524 165.437498,437.005856 165.771484,437.591797 C166.10547,438.177737 166.629879,438.470703 167.344727,438.470703 C168.030277,438.470703 168.537108,438.19971 168.865234,437.657715 C169.193361,437.11572 169.366211,436.267584 169.383789,435.113281 L169.383789,432.22168 Z M182.013672,440 L173.40918,440 L173.40918,438.532227 L177.671875,433.882812 C178.287112,433.197262 178.725096,432.624514 178.98584,432.164551 C179.246583,431.704588 179.376953,431.243166 179.376953,430.780273 C179.376953,430.170895 179.205568,429.678713 178.862793,429.303711 C178.520018,428.928709 178.058597,428.741211 177.478516,428.741211 C176.787106,428.741211 176.250978,428.952146 175.870117,429.374023 C175.489256,429.795901 175.298828,430.373043 175.298828,431.105469 L173.163086,431.105469 C173.163086,430.326168 173.34033,429.624515 173.694824,429.000488 C174.049318,428.376462 174.556149,427.891603 175.215332,427.545898 C175.874515,427.200194 176.634761,427.027344 177.496094,427.027344 C178.738287,427.027344 179.718258,427.339352 180.436035,427.963379 C181.153812,428.587405 181.512695,429.45019 181.512695,430.551758 C181.512695,431.190433 181.332521,431.85986 180.972168,432.560059 C180.611815,433.260257 180.021488,434.05566 179.201172,434.946289 L176.072266,438.294922 L182.013672,438.294922 L182.013672,440 Z M183.982422,440 L183.982422,427.203125 L188.368164,427.203125 C189.815437,427.203125 190.916988,427.493161 191.672852,428.073242 C192.428715,428.653323 192.806641,429.517572 192.806641,430.666016 C192.806641,431.251956 192.648439,431.779295 192.332031,432.248047 C192.015623,432.716799 191.552737,433.080077 190.943359,433.337891 C191.634769,433.525392 192.169432,433.878415 192.547363,434.396973 C192.925295,434.91553 193.114258,435.538082 193.114258,436.264648 C193.114258,437.465826 192.729008,438.388669 191.958496,439.033203 C191.187984,439.677738 190.084968,440 188.649414,440 L183.982422,440 Z M186.206055,434.225586 L186.206055,438.224609 L188.675781,438.224609 C189.37305,438.224609 189.917967,438.05176 190.310547,437.706055 C190.703127,437.36035 190.899414,436.879886 190.899414,436.264648 C190.899414,434.934564 190.219733,434.254883 188.860352,434.225586 L186.206055,434.225586 Z M186.206055,432.59082 L188.385742,432.59082 C189.077152,432.59082 189.617674,432.434084 190.007324,432.120605 C190.396975,431.807127 190.591797,431.363284 190.591797,430.789062 C190.591797,430.156247 190.411623,429.69922 190.05127,429.417969 C189.690916,429.136717 189.129887,428.996094 188.368164,428.996094 L186.206055,428.996094 L186.206055,432.59082 Z" id="1.02B" fill="#FFFFFF" opacity="0.535495924"></path>
                <path d="M123.919922,149.020508 L118.962891,149.020508 L117.925781,152 L115.614258,152 L120.448242,139.203125 L122.443359,139.203125 L127.286133,152 L124.96582,152 L123.919922,149.020508 Z M119.586914,147.227539 L123.295898,147.227539 L121.441406,141.918945 L119.586914,147.227539 Z M135.442383,150.224609 L141.251953,150.224609 L141.251953,152 L133.21875,152 L133.21875,139.203125 L135.442383,139.203125 L135.442383,150.224609 Z M145.022461,152 L142.886719,152 L142.886719,142.490234 L145.022461,142.490234 L145.022461,152 Z M142.754883,140.020508 C142.754883,139.692381 142.858886,139.419923 143.066895,139.203125 C143.274903,138.986327 143.572264,138.87793 143.958984,138.87793 C144.345705,138.87793 144.64453,138.986327 144.855469,139.203125 C145.066407,139.419923 145.171875,139.692381 145.171875,140.020508 C145.171875,140.342775 145.066407,140.610839 144.855469,140.824707 C144.64453,141.038575 144.345705,141.145508 143.958984,141.145508 C143.572264,141.145508 143.274903,141.038575 143.066895,140.824707 C142.858886,140.610839 142.754883,140.342775 142.754883,140.020508 Z M150.700195,149.292969 L152.712891,142.490234 L154.918945,142.490234 L151.623047,152 L149.768555,152 L146.446289,142.490234 L148.661133,142.490234 L150.700195,149.292969 Z M161.800781,152 C161.707031,151.818358 161.625,151.522463 161.554688,151.112305 C160.874997,151.821293 160.042974,152.175781 159.058594,152.175781 C158.103511,152.175781 157.324222,151.903323 156.720703,151.358398 C156.117184,150.813474 155.81543,150.139652 155.81543,149.336914 C155.81543,148.323237 156.191891,147.545413 156.944824,147.003418 C157.697758,146.461423 158.774407,146.19043 160.174805,146.19043 L161.484375,146.19043 L161.484375,145.566406 C161.484375,145.074216 161.346681,144.680177 161.071289,144.384277 C160.795897,144.088377 160.376956,143.94043 159.814453,143.94043 C159.328123,143.94043 158.929689,144.062011 158.619141,144.305176 C158.308592,144.548341 158.15332,144.85742 158.15332,145.232422 L156.017578,145.232422 C156.017578,144.710935 156.190428,144.223147 156.536133,143.769043 C156.881838,143.314939 157.352048,142.958986 157.946777,142.701172 C158.541507,142.443358 159.205074,142.314453 159.9375,142.314453 C161.050787,142.314453 161.938473,142.594235 162.600586,143.153809 C163.262699,143.713382 163.602539,144.499995 163.620117,145.513672 L163.620117,149.802734 C163.620117,150.658207 163.740233,151.340818 163.980469,151.850586 L163.980469,152 L161.800781,152 Z M159.454102,150.461914 C159.875979,150.461914 160.272947,150.359376 160.64502,150.154297 C161.017092,149.949218 161.296874,149.67383 161.484375,149.328125 L161.484375,147.535156 L160.333008,147.535156 C159.541988,147.535156 158.947268,147.67285 158.548828,147.948242 C158.150389,148.223634 157.951172,148.613279 157.951172,149.117188 C157.951172,149.527346 158.087401,149.854003 158.359863,150.097168 C158.632326,150.340333 158.997068,150.461914 159.454102,150.461914 Z M174.202148,147.341797 C174.202148,148.818367 173.872562,149.99316 173.213379,150.866211 C172.554196,151.739262 171.647467,152.175781 170.493164,152.175781 C169.379877,152.175781 168.512698,151.774418 167.891602,150.97168 L167.786133,152 L165.852539,152 L165.852539,138.5 L167.988281,138.5 L167.988281,143.404297 C168.603519,142.677731 169.432612,142.314453 170.475586,142.314453 C171.635748,142.314453 172.546872,142.745113 173.208984,143.606445 C173.871097,144.467778 174.202148,145.671867 174.202148,147.21875 L174.202148,147.341797 Z M172.066406,147.157227 C172.066406,146.125971 171.884767,145.352542 171.521484,144.836914 C171.158201,144.321286 170.630863,144.063477 169.939453,144.063477 C169.013667,144.063477 168.363283,144.467769 167.988281,145.276367 L167.988281,149.196289 C168.369143,150.022465 169.025386,150.435547 169.957031,150.435547 C170.625003,150.435547 171.140623,150.186526 171.503906,149.688477 C171.867189,149.190427 172.054687,148.437505 172.066406,147.429688 L172.066406,147.157227 Z M178.262695,152 L176.126953,152 L176.126953,138.5 L178.262695,138.5 L178.262695,152 Z M184.775391,152.175781 C183.421868,152.175781 182.324711,151.749516 181.483887,150.896973 C180.643062,150.044429 180.222656,148.909187 180.222656,147.491211 L180.222656,147.227539 C180.222656,146.278316 180.40576,145.43018 180.771973,144.683105 C181.138185,143.936031 181.65234,143.354494 182.314453,142.938477 C182.976566,142.522459 183.71484,142.314453 184.529297,142.314453 C185.824225,142.314453 186.824704,142.727535 187.530762,143.553711 C188.23682,144.379887 188.589844,145.548821 188.589844,147.060547 L188.589844,147.921875 L182.375977,147.921875 C182.44043,148.707035 182.702634,149.328123 183.162598,149.785156 C183.622561,150.24219 184.201168,150.470703 184.898438,150.470703 C185.876958,150.470703 186.673825,150.075199 187.289062,149.28418 L188.44043,150.382812 C188.059568,150.951175 187.551273,151.392088 186.915527,151.705566 C186.279782,152.019045 185.56641,152.175781 184.775391,152.175781 Z M184.520508,144.02832 C183.934567,144.02832 183.461428,144.233396 183.101074,144.643555 C182.740721,145.053713 182.510743,145.624996 182.411133,146.357422 L186.480469,146.357422 L186.480469,146.199219 C186.433594,145.484371 186.243166,144.943849 185.90918,144.577637 C185.575194,144.211424 185.112308,144.02832 184.520508,144.02832 Z M200.411133,152 C200.317382,151.818358 200.235352,151.522463 200.165039,151.112305 C199.485348,151.821293 198.653325,152.175781 197.668945,152.175781 C196.713862,152.175781 195.934573,151.903323 195.331055,151.358398 C194.727536,150.813474 194.425781,150.139652 194.425781,149.336914 C194.425781,148.323237 194.802242,147.545413 195.555176,147.003418 C196.308109,146.461423 197.384759,146.19043 198.785156,146.19043 L200.094727,146.19043 L200.094727,145.566406 C200.094727,145.074216 199.957033,144.680177 199.681641,144.384277 C199.406249,144.088377 198.987307,143.94043 198.424805,143.94043 C197.938474,143.94043 197.540041,144.062011 197.229492,144.305176 C196.918944,144.548341 196.763672,144.85742 196.763672,145.232422 L194.62793,145.232422 C194.62793,144.710935 194.80078,144.223147 195.146484,143.769043 C195.492189,143.314939 195.962399,142.958986 196.557129,142.701172 C197.151858,142.443358 197.815426,142.314453 198.547852,142.314453 C199.661138,142.314453 200.548825,142.594235 201.210938,143.153809 C201.87305,143.713382 202.212891,144.499995 202.230469,145.513672 L202.230469,149.802734 C202.230469,150.658207 202.350585,151.340818 202.59082,151.850586 L202.59082,152 L200.411133,152 Z M198.064453,150.461914 C198.48633,150.461914 198.883299,150.359376 199.255371,150.154297 C199.627443,149.949218 199.907226,149.67383 200.094727,149.328125 L200.094727,147.535156 L198.943359,147.535156 C198.15234,147.535156 197.557619,147.67285 197.15918,147.948242 C196.76074,148.223634 196.561523,148.613279 196.561523,149.117188 C196.561523,149.527346 196.697753,149.854003 196.970215,150.097168 C197.242677,150.340333 197.60742,150.461914 198.064453,150.461914 Z M206.449219,142.490234 L206.510742,143.588867 C207.213871,142.739254 208.136713,142.314453 209.279297,142.314453 C211.259776,142.314453 212.267578,143.448231 212.302734,145.71582 L212.302734,152 L210.166992,152 L210.166992,145.838867 C210.166992,145.235349 210.036622,144.788576 209.775879,144.498535 C209.515135,144.208495 209.08887,144.063477 208.49707,144.063477 C207.635738,144.063477 206.994143,144.453121 206.572266,145.232422 L206.572266,152 L204.436523,152 L204.436523,142.490234 L206.449219,142.490234 Z M214.078125,147.174805 C214.078125,145.709954 214.417965,144.533696 215.097656,143.645996 C215.777347,142.758296 216.688471,142.314453 217.831055,142.314453 C218.838872,142.314453 219.653317,142.666012 220.274414,143.369141 L220.274414,138.5 L222.410156,138.5 L222.410156,152 L220.476562,152 L220.371094,151.015625 C219.732419,151.789066 218.879888,152.175781 217.813477,152.175781 C216.70019,152.175781 215.79932,151.727544 215.11084,150.831055 C214.42236,149.934566 214.078125,148.715828 214.078125,147.174805 Z M216.213867,147.359375 C216.213867,148.326177 216.3999,149.080564 216.771973,149.622559 C217.144045,150.164553 217.672848,150.435547 218.358398,150.435547 C219.23145,150.435547 219.870115,150.045902 220.274414,149.266602 L220.274414,145.206055 C219.881834,144.444332 219.249028,144.063477 218.375977,144.063477 C217.684567,144.063477 217.151369,144.3374 216.776367,144.885254 C216.401365,145.433108 216.213867,146.257807 216.213867,147.359375 Z M112.393066,169.704102 C112.393066,169.141599 112.195314,168.708009 111.799805,168.40332 C111.404295,168.098631 110.690923,167.791017 109.659668,167.480469 C108.628413,167.16992 107.808109,166.824221 107.19873,166.443359 C106.032709,165.710934 105.449707,164.755865 105.449707,163.578125 C105.449707,162.54687 105.870113,161.697269 106.710938,161.029297 C107.551762,160.361325 108.64306,160.027344 109.984863,160.027344 C110.875493,160.027344 111.66943,160.191405 112.366699,160.519531 C113.063968,160.847658 113.611814,161.314938 114.010254,161.921387 C114.408693,162.527835 114.60791,163.200192 114.60791,163.938477 L112.393066,163.938477 C112.393066,163.270504 112.183596,162.74756 111.764648,162.369629 C111.345701,161.991697 110.746586,161.802734 109.967285,161.802734 C109.240719,161.802734 108.67676,161.958006 108.275391,162.268555 C107.874021,162.579103 107.67334,163.012693 107.67334,163.569336 C107.67334,164.038088 107.890135,164.429198 108.32373,164.742676 C108.757326,165.056154 109.472163,165.360838 110.468262,165.656738 C111.46436,165.952638 112.264157,166.289549 112.867676,166.66748 C113.471194,167.045412 113.913573,167.479001 114.194824,167.968262 C114.476076,168.457522 114.616699,169.03027 114.616699,169.686523 C114.616699,170.752935 114.208012,171.601071 113.390625,172.230957 C112.573238,172.860843 111.464362,173.175781 110.063965,173.175781 C109.138179,173.175781 108.287113,173.004396 107.510742,172.661621 C106.734371,172.318846 106.130862,171.845706 105.700195,171.242188 C105.269529,170.638669 105.054199,169.935551 105.054199,169.132812 L107.277832,169.132812 C107.277832,169.859379 107.518064,170.421873 107.998535,170.820312 C108.479006,171.218752 109.167476,171.417969 110.063965,171.417969 C110.837406,171.417969 111.418943,171.261232 111.808594,170.947754 C112.198244,170.634276 112.393066,170.219729 112.393066,169.704102 Z M122.122559,172.068359 C121.495602,172.806644 120.604986,173.175781 119.450684,173.175781 C118.419428,173.175781 117.638675,172.874026 117.108398,172.270508 C116.578122,171.666989 116.312988,170.793951 116.312988,169.651367 L116.312988,163.490234 L118.44873,163.490234 L118.44873,169.625 C118.44873,170.832037 118.949702,171.435547 119.95166,171.435547 C120.988775,171.435547 121.688963,171.06348 122.052246,170.319336 L122.052246,163.490234 L124.187988,163.490234 L124.187988,173 L122.175293,173 L122.122559,172.068359 Z M131.693848,170.416016 C131.693848,170.035154 131.537111,169.745118 131.223633,169.545898 C130.910155,169.346679 130.39014,169.170899 129.663574,169.018555 C128.937008,168.86621 128.330569,168.672853 127.844238,168.438477 C126.777827,167.922849 126.244629,167.175786 126.244629,166.197266 C126.244629,165.376949 126.590329,164.691409 127.281738,164.140625 C127.973148,163.589841 128.852045,163.314453 129.918457,163.314453 C131.055181,163.314453 131.973629,163.5957 132.673828,164.158203 C133.374027,164.720706 133.724121,165.450191 133.724121,166.34668 L131.588379,166.34668 C131.588379,165.936521 131.436037,165.595216 131.131348,165.322754 C130.826659,165.050292 130.422366,164.914062 129.918457,164.914062 C129.449705,164.914062 129.067384,165.02246 128.771484,165.239258 C128.475584,165.456056 128.327637,165.746092 128.327637,166.109375 C128.327637,166.437502 128.465331,166.692382 128.740723,166.874023 C129.016115,167.055665 129.57275,167.238769 130.410645,167.42334 C131.248539,167.607911 131.906248,167.827635 132.383789,168.08252 C132.861331,168.337404 133.215819,168.643553 133.447266,169.000977 C133.678712,169.3584 133.794434,169.79199 133.794434,170.301758 C133.794434,171.157231 133.439945,171.850095 132.730957,172.380371 C132.021969,172.910647 131.093267,173.175781 129.944824,173.175781 C129.165523,173.175781 128.471194,173.035158 127.861816,172.753906 C127.252438,172.472655 126.777834,172.08594 126.437988,171.59375 C126.098143,171.10156 125.928223,170.571292 125.928223,170.00293 L128.002441,170.00293 C128.031738,170.506838 128.222166,170.895018 128.57373,171.16748 C128.925295,171.439943 129.39111,171.576172 129.971191,171.576172 C130.533694,171.576172 130.961424,171.469239 131.254395,171.255371 C131.547365,171.041503 131.693848,170.76172 131.693848,170.416016 Z M138.32959,161.178711 L138.32959,163.490234 L140.008301,163.490234 L140.008301,165.072266 L138.32959,165.072266 L138.32959,170.380859 C138.32959,170.744142 138.401366,171.006347 138.544922,171.16748 C138.688477,171.328614 138.944822,171.40918 139.313965,171.40918 C139.56006,171.40918 139.809081,171.379883 140.061035,171.321289 L140.061035,172.973633 C139.574705,173.108399 139.105959,173.175781 138.654785,173.175781 C137.014152,173.175781 136.193848,172.270517 136.193848,170.459961 L136.193848,165.072266 L134.629395,165.072266 L134.629395,163.490234 L136.193848,163.490234 L136.193848,161.178711 L138.32959,161.178711 Z M147.320801,173 C147.22705,172.818358 147.14502,172.522463 147.074707,172.112305 C146.395016,172.821293 145.562993,173.175781 144.578613,173.175781 C143.62353,173.175781 142.844241,172.903323 142.240723,172.358398 C141.637204,171.813474 141.335449,171.139652 141.335449,170.336914 C141.335449,169.323237 141.71191,168.545413 142.464844,168.003418 C143.217777,167.461423 144.294427,167.19043 145.694824,167.19043 L147.004395,167.19043 L147.004395,166.566406 C147.004395,166.074216 146.866701,165.680177 146.591309,165.384277 C146.315917,165.088377 145.896975,164.94043 145.334473,164.94043 C144.848142,164.94043 144.449709,165.062011 144.13916,165.305176 C143.828612,165.548341 143.67334,165.85742 143.67334,166.232422 L141.537598,166.232422 C141.537598,165.710935 141.710447,165.223147 142.056152,164.769043 C142.401857,164.314939 142.872067,163.958986 143.466797,163.701172 C144.061526,163.443358 144.725094,163.314453 145.45752,163.314453 C146.570806,163.314453 147.458493,163.594235 148.120605,164.153809 C148.782718,164.713382 149.122559,165.499995 149.140137,166.513672 L149.140137,170.802734 C149.140137,171.658207 149.260253,172.340818 149.500488,172.850586 L149.500488,173 L147.320801,173 Z M144.974121,171.461914 C145.395998,171.461914 145.792967,171.359376 146.165039,171.154297 C146.537111,170.949218 146.816894,170.67383 147.004395,170.328125 L147.004395,168.535156 L145.853027,168.535156 C145.062008,168.535156 144.467287,168.67285 144.068848,168.948242 C143.670408,169.223634 143.471191,169.613279 143.471191,170.117188 C143.471191,170.527346 143.607421,170.854003 143.879883,171.097168 C144.152345,171.340333 144.517088,171.461914 144.974121,171.461914 Z M153.648926,173 L151.513184,173 L151.513184,163.490234 L153.648926,163.490234 L153.648926,173 Z M151.381348,161.020508 C151.381348,160.692381 151.485351,160.419923 151.693359,160.203125 C151.901368,159.986327 152.198729,159.87793 152.585449,159.87793 C152.97217,159.87793 153.270995,159.986327 153.481934,160.203125 C153.692872,160.419923 153.79834,160.692381 153.79834,161.020508 C153.79834,161.342775 153.692872,161.610839 153.481934,161.824707 C153.270995,162.038575 152.97217,162.145508 152.585449,162.145508 C152.198729,162.145508 151.901368,162.038575 151.693359,161.824707 C151.485351,161.610839 151.381348,161.342775 151.381348,161.020508 Z M157.955566,163.490234 L158.01709,164.588867 C158.720218,163.739254 159.643061,163.314453 160.785645,163.314453 C162.766123,163.314453 163.773926,164.448231 163.809082,166.71582 L163.809082,173 L161.67334,173 L161.67334,166.838867 C161.67334,166.235349 161.54297,165.788576 161.282227,165.498535 C161.021483,165.208495 160.595218,165.063477 160.003418,165.063477 C159.142086,165.063477 158.50049,165.453121 158.078613,166.232422 L158.078613,173 L155.942871,173 L155.942871,163.490234 L157.955566,163.490234 Z M171.666504,173 C171.572753,172.818358 171.490723,172.522463 171.42041,172.112305 C170.740719,172.821293 169.908696,173.175781 168.924316,173.175781 C167.969234,173.175781 167.189944,172.903323 166.586426,172.358398 C165.982907,171.813474 165.681152,171.139652 165.681152,170.336914 C165.681152,169.323237 166.057613,168.545413 166.810547,168.003418 C167.56348,167.461423 168.64013,167.19043 170.040527,167.19043 L171.350098,167.19043 L171.350098,166.566406 C171.350098,166.074216 171.212404,165.680177 170.937012,165.384277 C170.66162,165.088377 170.242679,164.94043 169.680176,164.94043 C169.193845,164.94043 168.795412,165.062011 168.484863,165.305176 C168.174315,165.548341 168.019043,165.85742 168.019043,166.232422 L165.883301,166.232422 C165.883301,165.710935 166.056151,165.223147 166.401855,164.769043 C166.74756,164.314939 167.21777,163.958986 167.8125,163.701172 C168.40723,163.443358 169.070797,163.314453 169.803223,163.314453 C170.916509,163.314453 171.804196,163.594235 172.466309,164.153809 C173.128421,164.713382 173.468262,165.499995 173.48584,166.513672 L173.48584,170.802734 C173.48584,171.658207 173.605956,172.340818 173.846191,172.850586 L173.846191,173 L171.666504,173 Z M169.319824,171.461914 C169.741701,171.461914 170.13867,171.359376 170.510742,171.154297 C170.882814,170.949218 171.162597,170.67383 171.350098,170.328125 L171.350098,168.535156 L170.19873,168.535156 C169.407711,168.535156 168.81299,168.67285 168.414551,168.948242 C168.016111,169.223634 167.816895,169.613279 167.816895,170.117188 C167.816895,170.527346 167.953124,170.854003 168.225586,171.097168 C168.498048,171.340333 168.862791,171.461914 169.319824,171.461914 Z M184.067871,168.341797 C184.067871,169.818367 183.738285,170.99316 183.079102,171.866211 C182.419919,172.739262 181.513189,173.175781 180.358887,173.175781 C179.2456,173.175781 178.378421,172.774418 177.757324,171.97168 L177.651855,173 L175.718262,173 L175.718262,159.5 L177.854004,159.5 L177.854004,164.404297 C178.469241,163.677731 179.298335,163.314453 180.341309,163.314453 C181.501471,163.314453 182.412594,163.745113 183.074707,164.606445 C183.73682,165.467778 184.067871,166.671867 184.067871,168.21875 L184.067871,168.341797 Z M181.932129,168.157227 C181.932129,167.125971 181.75049,166.352542 181.387207,165.836914 C181.023924,165.321286 180.496585,165.063477 179.805176,165.063477 C178.87939,165.063477 178.229006,165.467769 177.854004,166.276367 L177.854004,170.196289 C178.234865,171.022465 178.891109,171.435547 179.822754,171.435547 C180.490726,171.435547 181.006346,171.186526 181.369629,170.688477 C181.732912,170.190427 181.92041,169.437505 181.932129,168.429688 L181.932129,168.157227 Z M188.128418,173 L185.992676,173 L185.992676,159.5 L188.128418,159.5 L188.128418,173 Z M194.641113,173.175781 C193.287591,173.175781 192.190434,172.749516 191.349609,171.896973 C190.508785,171.044429 190.088379,169.909187 190.088379,168.491211 L190.088379,168.227539 C190.088379,167.278316 190.271483,166.43018 190.637695,165.683105 C191.003908,164.936031 191.518063,164.354494 192.180176,163.938477 C192.842288,163.522459 193.580562,163.314453 194.39502,163.314453 C195.689948,163.314453 196.690426,163.727535 197.396484,164.553711 C198.102543,165.379887 198.455566,166.548821 198.455566,168.060547 L198.455566,168.921875 L192.241699,168.921875 C192.306153,169.707035 192.568357,170.328123 193.02832,170.785156 C193.488284,171.24219 194.066891,171.470703 194.76416,171.470703 C195.742681,171.470703 196.539548,171.075199 197.154785,170.28418 L198.306152,171.382812 C197.925291,171.951175 197.416995,172.392088 196.78125,172.705566 C196.145505,173.019045 195.432133,173.175781 194.641113,173.175781 Z M194.38623,165.02832 C193.80029,165.02832 193.32715,165.233396 192.966797,165.643555 C192.606444,166.053713 192.376465,166.624996 192.276855,167.357422 L196.346191,167.357422 L196.346191,167.199219 C196.299316,166.484371 196.108888,165.943849 195.774902,165.577637 C195.440916,165.211424 194.97803,165.02832 194.38623,165.02832 Z M214.565918,168.833984 C214.437011,170.199226 213.93311,171.264156 213.054199,172.028809 C212.175289,172.793461 211.006355,173.175781 209.547363,173.175781 C208.527827,173.175781 207.629887,172.934084 206.853516,172.450684 C206.077145,171.967283 205.478029,171.280278 205.056152,170.389648 C204.634275,169.499019 204.414551,168.46485 204.396973,167.287109 L204.396973,166.091797 C204.396973,164.88476 204.610838,163.821294 205.038574,162.901367 C205.466311,161.981441 206.080074,161.272463 206.879883,160.774414 C207.679691,160.276365 208.603999,160.027344 209.652832,160.027344 C211.064948,160.027344 212.201656,160.411129 213.062988,161.178711 C213.924321,161.946293 214.425292,163.030266 214.565918,164.430664 L212.351074,164.430664 C212.245605,163.510738 211.977541,162.84717 211.546875,162.439941 C211.116209,162.032713 210.484867,161.829102 209.652832,161.829102 C208.68603,161.829102 207.943362,162.182125 207.424805,162.888184 C206.906247,163.594242 206.641113,164.629876 206.629395,165.995117 L206.629395,167.128906 C206.629395,168.511726 206.876951,169.566403 207.37207,170.292969 C207.86719,171.019535 208.59228,171.382812 209.547363,171.382812 C210.420415,171.382812 211.076658,171.186525 211.516113,170.793945 C211.955569,170.401365 212.233886,169.748051 212.351074,168.833984 L214.565918,168.833984 Z M218.617676,173 L216.481934,173 L216.481934,163.490234 L218.617676,163.490234 L218.617676,173 Z M216.350098,161.020508 C216.350098,160.692381 216.454101,160.419923 216.662109,160.203125 C216.870118,159.986327 217.167479,159.87793 217.554199,159.87793 C217.94092,159.87793 218.239745,159.986327 218.450684,160.203125 C218.661622,160.419923 218.76709,160.692381 218.76709,161.020508 C218.76709,161.342775 218.661622,161.610839 218.450684,161.824707 C218.239745,162.038575 217.94092,162.145508 217.554199,162.145508 C217.167479,162.145508 216.870118,162.038575 216.662109,161.824707 C216.454101,161.610839 216.350098,161.342775 216.350098,161.020508 Z M223.618652,161.178711 L223.618652,163.490234 L225.297363,163.490234 L225.297363,165.072266 L223.618652,165.072266 L223.618652,170.380859 C223.618652,170.744142 223.690429,171.006347 223.833984,171.16748 C223.97754,171.328614 224.233885,171.40918 224.603027,171.40918 C224.849122,171.40918 225.098143,171.379883 225.350098,171.321289 L225.350098,172.973633 C224.863767,173.108399 224.395022,173.175781 223.943848,173.175781 C222.303214,173.175781 221.48291,172.270517 221.48291,170.459961 L221.48291,165.072266 L219.918457,165.072266 L219.918457,163.490234 L221.48291,163.490234 L221.48291,161.178711 L223.618652,161.178711 Z M230.254395,169.941406 L232.187988,163.490234 L234.464355,163.490234 L230.685059,174.441406 C230.104978,176.041024 229.120612,176.84082 227.731934,176.84082 C227.421385,176.84082 227.078615,176.788086 226.703613,176.682617 L226.703613,175.030273 L227.10791,175.056641 C227.646975,175.056641 228.052733,174.958497 228.325195,174.762207 C228.597658,174.565917 228.812987,174.23633 228.971191,173.773438 L229.278809,172.956055 L225.938965,163.490234 L228.241699,163.490234 L230.254395,169.941406 Z" id="A-Livable-and-Sustai-Copy" fill="#FFFFFF"></path>
                <path d="M365.728516,380.020508 L360.771484,380.020508 L359.734375,383 L357.422852,383 L362.256836,370.203125 L364.251953,370.203125 L369.094727,383 L366.774414,383 L365.728516,380.020508 Z M361.395508,378.227539 L365.104492,378.227539 L363.25,372.918945 L361.395508,378.227539 Z M381.71582,379.704102 C381.71582,379.141599 381.518068,378.708009 381.122559,378.40332 C380.727049,378.098631 380.013677,377.791017 378.982422,377.480469 C377.951167,377.16992 377.130862,376.824221 376.521484,376.443359 C375.355463,375.710934 374.772461,374.755865 374.772461,373.578125 C374.772461,372.54687 375.192867,371.697269 376.033691,371.029297 C376.874516,370.361325 377.965814,370.027344 379.307617,370.027344 C380.198247,370.027344 380.992184,370.191405 381.689453,370.519531 C382.386722,370.847658 382.934568,371.314938 383.333008,371.921387 C383.731447,372.527835 383.930664,373.200192 383.930664,373.938477 L381.71582,373.938477 C381.71582,373.270504 381.50635,372.74756 381.087402,372.369629 C380.668455,371.991697 380.06934,371.802734 379.290039,371.802734 C378.563473,371.802734 377.999514,371.958006 377.598145,372.268555 C377.196775,372.579103 376.996094,373.012693 376.996094,373.569336 C376.996094,374.038088 377.212888,374.429198 377.646484,374.742676 C378.08008,375.056154 378.794917,375.360838 379.791016,375.656738 C380.787114,375.952638 381.586911,376.289549 382.19043,376.66748 C382.793948,377.045412 383.236327,377.479001 383.517578,377.968262 C383.79883,378.457522 383.939453,379.03027 383.939453,379.686523 C383.939453,380.752935 383.530766,381.601071 382.713379,382.230957 C381.895992,382.860843 380.787116,383.175781 379.386719,383.175781 C378.460933,383.175781 377.609867,383.004396 376.833496,382.661621 C376.057125,382.318846 375.453615,381.845706 375.022949,381.242188 C374.592283,380.638669 374.376953,379.935551 374.376953,379.132812 L376.600586,379.132812 C376.600586,379.859379 376.840818,380.421873 377.321289,380.820312 C377.80176,381.218752 378.49023,381.417969 379.386719,381.417969 C380.16016,381.417969 380.741697,381.261232 381.131348,380.947754 C381.520998,380.634276 381.71582,380.219729 381.71582,379.704102 Z M391.366211,383 C391.27246,382.818358 391.19043,382.522463 391.120117,382.112305 C390.440426,382.821293 389.608403,383.175781 388.624023,383.175781 C387.668941,383.175781 386.889651,382.903323 386.286133,382.358398 C385.682614,381.813474 385.380859,381.139652 385.380859,380.336914 C385.380859,379.323237 385.75732,378.545413 386.510254,378.003418 C387.263187,377.461423 388.339837,377.19043 389.740234,377.19043 L391.049805,377.19043 L391.049805,376.566406 C391.049805,376.074216 390.912111,375.680177 390.636719,375.384277 C390.361327,375.088377 389.942386,374.94043 389.379883,374.94043 C388.893552,374.94043 388.495119,375.062011 388.18457,375.305176 C387.874022,375.548341 387.71875,375.85742 387.71875,376.232422 L385.583008,376.232422 C385.583008,375.710935 385.755858,375.223147 386.101562,374.769043 C386.447267,374.314939 386.917477,373.958986 387.512207,373.701172 C388.106937,373.443358 388.770504,373.314453 389.50293,373.314453 C390.616217,373.314453 391.503903,373.594235 392.166016,374.153809 C392.828128,374.713382 393.167969,375.499995 393.185547,376.513672 L393.185547,380.802734 C393.185547,381.658207 393.305663,382.340818 393.545898,382.850586 L393.545898,383 L391.366211,383 Z M389.019531,381.461914 C389.441408,381.461914 389.838377,381.359376 390.210449,381.154297 C390.582521,380.949218 390.862304,380.67383 391.049805,380.328125 L391.049805,378.535156 L389.898438,378.535156 C389.107418,378.535156 388.512697,378.67285 388.114258,378.948242 C387.715818,379.223634 387.516602,379.613279 387.516602,380.117188 C387.516602,380.527346 387.652831,380.854003 387.925293,381.097168 C388.197755,381.340333 388.562498,381.461914 389.019531,381.461914 Z M396.173828,383 L396.173828,375.072266 L394.723633,375.072266 L394.723633,373.490234 L396.173828,373.490234 L396.173828,372.620117 C396.173828,371.565424 396.466794,370.750979 397.052734,370.176758 C397.638675,369.602536 398.458979,369.31543 399.513672,369.31543 C399.888674,369.31543 400.287107,369.368164 400.708984,369.473633 L400.65625,371.143555 C400.421874,371.096679 400.149416,371.073242 399.838867,371.073242 C398.819331,371.073242 398.30957,371.597651 398.30957,372.646484 L398.30957,373.490234 L400.243164,373.490234 L400.243164,375.072266 L398.30957,375.072266 L398.30957,383 L396.173828,383 Z M405.780273,383.175781 C404.426751,383.175781 403.329594,382.749516 402.48877,381.896973 C401.647945,381.044429 401.227539,379.909187 401.227539,378.491211 L401.227539,378.227539 C401.227539,377.278316 401.410643,376.43018 401.776855,375.683105 C402.143068,374.936031 402.657223,374.354494 403.319336,373.938477 C403.981449,373.522459 404.719722,373.314453 405.53418,373.314453 C406.829108,373.314453 407.829586,373.727535 408.535645,374.553711 C409.241703,375.379887 409.594727,376.548821 409.594727,378.060547 L409.594727,378.921875 L403.380859,378.921875 C403.445313,379.707035 403.707517,380.328123 404.16748,380.785156 C404.627444,381.24219 405.206051,381.470703 405.90332,381.470703 C406.881841,381.470703 407.678708,381.075199 408.293945,380.28418 L409.445312,381.382812 C409.064451,381.951175 408.556156,382.392088 407.92041,382.705566 C407.284665,383.019045 406.571293,383.175781 405.780273,383.175781 Z M405.525391,375.02832 C404.93945,375.02832 404.46631,375.233396 404.105957,375.643555 C403.745604,376.053713 403.515625,376.624996 403.416016,377.357422 L407.485352,377.357422 L407.485352,377.199219 C407.438476,376.484371 407.248049,375.943849 406.914062,375.577637 C406.580076,375.211424 406.11719,375.02832 405.525391,375.02832 Z M425.705078,378.833984 C425.576171,380.199226 425.07227,381.264156 424.193359,382.028809 C423.314449,382.793461 422.145515,383.175781 420.686523,383.175781 C419.666987,383.175781 418.769047,382.934084 417.992676,382.450684 C417.216305,381.967283 416.61719,381.280278 416.195312,380.389648 C415.773435,379.499019 415.553711,378.46485 415.536133,377.287109 L415.536133,376.091797 C415.536133,374.88476 415.749998,373.821294 416.177734,372.901367 C416.605471,371.981441 417.219234,371.272463 418.019043,370.774414 C418.818852,370.276365 419.743159,370.027344 420.791992,370.027344 C422.204109,370.027344 423.340816,370.411129 424.202148,371.178711 C425.063481,371.946293 425.564452,373.030266 425.705078,374.430664 L423.490234,374.430664 C423.384765,373.510738 423.116701,372.84717 422.686035,372.439941 C422.255369,372.032713 421.624028,371.829102 420.791992,371.829102 C419.82519,371.829102 419.082522,372.182125 418.563965,372.888184 C418.045408,373.594242 417.780273,374.629876 417.768555,375.995117 L417.768555,377.128906 C417.768555,378.511726 418.016111,379.566403 418.51123,380.292969 C419.00635,381.019535 419.731441,381.382812 420.686523,381.382812 C421.559575,381.382812 422.215818,381.186525 422.655273,380.793945 C423.094729,380.401365 423.373046,379.748051 423.490234,378.833984 L425.705078,378.833984 Z M429.756836,383 L427.621094,383 L427.621094,373.490234 L429.756836,373.490234 L429.756836,383 Z M427.489258,371.020508 C427.489258,370.692381 427.593261,370.419923 427.80127,370.203125 C428.009278,369.986327 428.306639,369.87793 428.693359,369.87793 C429.08008,369.87793 429.378905,369.986327 429.589844,370.203125 C429.800782,370.419923 429.90625,370.692381 429.90625,371.020508 C429.90625,371.342775 429.800782,371.610839 429.589844,371.824707 C429.378905,372.038575 429.08008,372.145508 428.693359,372.145508 C428.306639,372.145508 428.009278,372.038575 427.80127,371.824707 C427.593261,371.610839 427.489258,371.342775 427.489258,371.020508 Z M434.757812,371.178711 L434.757812,373.490234 L436.436523,373.490234 L436.436523,375.072266 L434.757812,375.072266 L434.757812,380.380859 C434.757812,380.744142 434.829589,381.006347 434.973145,381.16748 C435.1167,381.328614 435.373045,381.40918 435.742188,381.40918 C435.988282,381.40918 436.237303,381.379883 436.489258,381.321289 L436.489258,382.973633 C436.002927,383.108399 435.534182,383.175781 435.083008,383.175781 C433.442375,383.175781 432.62207,382.270517 432.62207,380.459961 L432.62207,375.072266 L431.057617,375.072266 L431.057617,373.490234 L432.62207,373.490234 L432.62207,371.178711 L434.757812,371.178711 Z M441.393555,379.941406 L443.327148,373.490234 L445.603516,373.490234 L441.824219,384.441406 C441.244138,386.041024 440.259773,386.84082 438.871094,386.84082 C438.560545,386.84082 438.217775,386.788086 437.842773,386.682617 L437.842773,385.030273 L438.24707,385.056641 C438.786136,385.056641 439.191893,384.958497 439.464355,384.762207 C439.736818,384.565917 439.952148,384.23633 440.110352,383.773438 L440.417969,382.956055 L437.078125,373.490234 L439.380859,373.490234 L441.393555,379.941406 Z" id="A-Safe-City" fill="#FFFFFF"></path>
                <path d="M362.033203,153.020508 L357.076172,153.020508 L356.039062,156 L353.727539,156 L358.561523,143.203125 L360.556641,143.203125 L365.399414,156 L363.079102,156 L362.033203,153.020508 Z M357.700195,151.227539 L361.40918,151.227539 L359.554688,145.918945 L357.700195,151.227539 Z M373.555664,151.245117 L373.555664,156 L371.332031,156 L371.332031,143.203125 L376.227539,143.203125 C377.657234,143.203125 378.792476,143.575192 379.633301,144.319336 C380.474125,145.06348 380.894531,146.047845 380.894531,147.272461 C380.894531,148.526373 380.482914,149.50195 379.659668,150.199219 C378.836422,150.896488 377.683601,151.245117 376.201172,151.245117 L373.555664,151.245117 Z M373.555664,149.460938 L376.227539,149.460938 C377.018559,149.460938 377.622068,149.274904 378.038086,148.902832 C378.454104,148.53076 378.662109,147.993168 378.662109,147.290039 C378.662109,146.598629 378.451174,146.046389 378.029297,145.633301 C377.60742,145.220213 377.027347,145.007813 376.289062,144.996094 L373.555664,144.996094 L373.555664,149.460938 Z M387.609375,148.441406 C387.328124,148.394531 387.038087,148.371094 386.739258,148.371094 C385.760737,148.371094 385.101564,148.74609 384.761719,149.496094 L384.761719,156 L382.625977,156 L382.625977,146.490234 L384.665039,146.490234 L384.717773,147.553711 C385.233401,146.727535 385.948238,146.314453 386.862305,146.314453 C387.166994,146.314453 387.418944,146.355468 387.618164,146.4375 L387.609375,148.441406 Z M388.242188,151.157227 C388.242188,150.225581 388.426756,149.386234 388.795898,148.63916 C389.165041,147.892086 389.68359,147.317873 390.351562,146.916504 C391.019535,146.515135 391.787105,146.314453 392.654297,146.314453 C393.937506,146.314453 394.979,146.727535 395.778809,147.553711 C396.578617,148.379887 397.010742,149.475579 397.075195,150.84082 L397.083984,151.341797 C397.083984,152.279302 396.90381,153.117184 396.543457,153.855469 C396.183104,154.593754 395.667484,155.165037 394.996582,155.569336 C394.32568,155.973635 393.550786,156.175781 392.671875,156.175781 C391.330071,156.175781 390.256352,155.729008 389.450684,154.835449 C388.645016,153.94189 388.242188,152.750984 388.242188,151.262695 L388.242188,151.157227 Z M390.37793,151.341797 C390.37793,152.320317 390.580076,153.086423 390.984375,153.640137 C391.388674,154.19385 391.951168,154.470703 392.671875,154.470703 C393.392582,154.470703 393.953611,154.189456 394.35498,153.626953 C394.75635,153.06445 394.957031,152.241216 394.957031,151.157227 C394.957031,150.196284 394.75049,149.434573 394.337402,148.87207 C393.924314,148.309568 393.363285,148.02832 392.654297,148.02832 C391.957028,148.02832 391.403322,148.305173 390.993164,148.858887 C390.583006,149.4126 390.37793,150.240229 390.37793,151.341797 Z M404.220703,153.416016 C404.220703,153.035154 404.063966,152.745118 403.750488,152.545898 C403.43701,152.346679 402.916996,152.170899 402.19043,152.018555 C401.463864,151.86621 400.857424,151.672853 400.371094,151.438477 C399.304682,150.922849 398.771484,150.175786 398.771484,149.197266 C398.771484,148.376949 399.117184,147.691409 399.808594,147.140625 C400.500003,146.589841 401.378901,146.314453 402.445312,146.314453 C403.582037,146.314453 404.500485,146.5957 405.200684,147.158203 C405.900882,147.720706 406.250977,148.450191 406.250977,149.34668 L404.115234,149.34668 C404.115234,148.936521 403.962892,148.595216 403.658203,148.322754 C403.353514,148.050292 402.949221,147.914062 402.445312,147.914062 C401.97656,147.914062 401.59424,148.02246 401.29834,148.239258 C401.00244,148.456056 400.854492,148.746092 400.854492,149.109375 C400.854492,149.437502 400.992186,149.692382 401.267578,149.874023 C401.54297,150.055665 402.099605,150.238769 402.9375,150.42334 C403.775395,150.607911 404.433103,150.827635 404.910645,151.08252 C405.388186,151.337404 405.742675,151.643553 405.974121,152.000977 C406.205568,152.3584 406.321289,152.79199 406.321289,153.301758 C406.321289,154.157231 405.9668,154.850095 405.257812,155.380371 C404.548825,155.910647 403.620123,156.175781 402.47168,156.175781 C401.692379,156.175781 400.99805,156.035158 400.388672,155.753906 C399.779294,155.472655 399.304689,155.08594 398.964844,154.59375 C398.624998,154.10156 398.455078,153.571292 398.455078,153.00293 L400.529297,153.00293 C400.558594,153.506838 400.749022,153.895018 401.100586,154.16748 C401.45215,154.439943 401.917966,154.576172 402.498047,154.576172 C403.06055,154.576172 403.48828,154.469239 403.78125,154.255371 C404.07422,154.041503 404.220703,153.76172 404.220703,153.416016 Z M416.507812,151.341797 C416.507812,152.812507 416.173831,153.985835 415.505859,154.861816 C414.837887,155.737797 413.941412,156.175781 412.816406,156.175781 C411.773432,156.175781 410.93848,155.833011 410.311523,155.147461 L410.311523,159.65625 L408.175781,159.65625 L408.175781,146.490234 L410.144531,146.490234 L410.232422,147.457031 C410.859378,146.695309 411.711909,146.314453 412.790039,146.314453 C413.950201,146.314453 414.85986,146.746578 415.519043,147.61084 C416.178226,148.475102 416.507812,149.674797 416.507812,151.209961 L416.507812,151.341797 Z M414.380859,151.157227 C414.380859,150.208003 414.191896,149.455081 413.813965,148.898438 C413.436033,148.341794 412.895511,148.063477 412.192383,148.063477 C411.319332,148.063477 410.692385,148.423825 410.311523,149.144531 L410.311523,153.363281 C410.698244,154.101566 411.33105,154.470703 412.209961,154.470703 C412.889652,154.470703 413.421385,154.19678 413.805176,153.648926 C414.188967,153.101071 414.380859,152.270513 414.380859,151.157227 Z M422.501953,156.175781 C421.148431,156.175781 420.051274,155.749516 419.210449,154.896973 C418.369625,154.044429 417.949219,152.909187 417.949219,151.491211 L417.949219,151.227539 C417.949219,150.278316 418.132322,149.43018 418.498535,148.683105 C418.864748,147.936031 419.378903,147.354494 420.041016,146.938477 C420.703128,146.522459 421.441402,146.314453 422.255859,146.314453 C423.550788,146.314453 424.551266,146.727535 425.257324,147.553711 C425.963382,148.379887 426.316406,149.548821 426.316406,151.060547 L426.316406,151.921875 L420.102539,151.921875 C420.166993,152.707035 420.429197,153.328123 420.88916,153.785156 C421.349123,154.24219 421.927731,154.470703 422.625,154.470703 C423.603521,154.470703 424.400388,154.075199 425.015625,153.28418 L426.166992,154.382812 C425.786131,154.951175 425.277835,155.392088 424.64209,155.705566 C424.006344,156.019045 423.292973,156.175781 422.501953,156.175781 Z M422.24707,148.02832 C421.66113,148.02832 421.18799,148.233396 420.827637,148.643555 C420.467283,149.053713 420.237305,149.624996 420.137695,150.357422 L424.207031,150.357422 L424.207031,150.199219 C424.160156,149.484371 423.969728,148.943849 423.635742,148.577637 C423.301756,148.211424 422.83887,148.02832 422.24707,148.02832 Z M432.952148,148.441406 C432.670897,148.394531 432.380861,148.371094 432.082031,148.371094 C431.103511,148.371094 430.444338,148.74609 430.104492,149.496094 L430.104492,156 L427.96875,156 L427.96875,146.490234 L430.007812,146.490234 L430.060547,147.553711 C430.576174,146.727535 431.291011,146.314453 432.205078,146.314453 C432.509767,146.314453 432.761718,146.355468 432.960938,146.4375 L432.952148,148.441406 Z M433.584961,151.157227 C433.584961,150.225581 433.769529,149.386234 434.138672,148.63916 C434.507814,147.892086 435.026364,147.317873 435.694336,146.916504 C436.362308,146.515135 437.129878,146.314453 437.99707,146.314453 C439.28028,146.314453 440.321773,146.727535 441.121582,147.553711 C441.921391,148.379887 442.353515,149.475579 442.417969,150.84082 L442.426758,151.341797 C442.426758,152.279302 442.246584,153.117184 441.88623,153.855469 C441.525877,154.593754 441.010257,155.165037 440.339355,155.569336 C439.668454,155.973635 438.893559,156.175781 438.014648,156.175781 C436.672845,156.175781 435.599125,155.729008 434.793457,154.835449 C433.987789,153.94189 433.584961,152.750984 433.584961,151.262695 L433.584961,151.157227 Z M435.720703,151.341797 C435.720703,152.320317 435.92285,153.086423 436.327148,153.640137 C436.731447,154.19385 437.293942,154.470703 438.014648,154.470703 C438.735355,154.470703 439.296385,154.189456 439.697754,153.626953 C440.099123,153.06445 440.299805,152.241216 440.299805,151.157227 C440.299805,150.196284 440.093264,149.434573 439.680176,148.87207 C439.267088,148.309568 438.706058,148.02832 437.99707,148.02832 C437.299801,148.02832 436.746096,148.305173 436.335938,148.858887 C435.925779,149.4126 435.720703,150.240229 435.720703,151.341797 Z M449.994141,155.068359 C449.367184,155.806644 448.476568,156.175781 447.322266,156.175781 C446.29101,156.175781 445.510257,155.874026 444.97998,155.270508 C444.449704,154.666989 444.18457,153.793951 444.18457,152.651367 L444.18457,146.490234 L446.320312,146.490234 L446.320312,152.625 C446.320312,153.832037 446.821284,154.435547 447.823242,154.435547 C448.860357,154.435547 449.560545,154.06348 449.923828,153.319336 L449.923828,146.490234 L452.05957,146.490234 L452.05957,156 L450.046875,156 L449.994141,155.068359 Z M459.56543,153.416016 C459.56543,153.035154 459.408693,152.745118 459.095215,152.545898 C458.781737,152.346679 458.261722,152.170899 457.535156,152.018555 C456.80859,151.86621 456.202151,151.672853 455.71582,151.438477 C454.649409,150.922849 454.116211,150.175786 454.116211,149.197266 C454.116211,148.376949 454.461911,147.691409 455.15332,147.140625 C455.84473,146.589841 456.723627,146.314453 457.790039,146.314453 C458.926763,146.314453 459.845211,146.5957 460.54541,147.158203 C461.245609,147.720706 461.595703,148.450191 461.595703,149.34668 L459.459961,149.34668 C459.459961,148.936521 459.307619,148.595216 459.00293,148.322754 C458.698241,148.050292 458.293948,147.914062 457.790039,147.914062 C457.321287,147.914062 456.938966,148.02246 456.643066,148.239258 C456.347166,148.456056 456.199219,148.746092 456.199219,149.109375 C456.199219,149.437502 456.336913,149.692382 456.612305,149.874023 C456.887697,150.055665 457.444332,150.238769 458.282227,150.42334 C459.120121,150.607911 459.77783,150.827635 460.255371,151.08252 C460.732913,151.337404 461.087401,151.643553 461.318848,152.000977 C461.550294,152.3584 461.666016,152.79199 461.666016,153.301758 C461.666016,154.157231 461.311527,154.850095 460.602539,155.380371 C459.893551,155.910647 458.964849,156.175781 457.816406,156.175781 C457.037105,156.175781 456.342776,156.035158 455.733398,155.753906 C455.12402,155.472655 454.649416,155.08594 454.30957,154.59375 C453.969725,154.10156 453.799805,153.571292 453.799805,153.00293 L455.874023,153.00293 C455.90332,153.506838 456.093748,153.895018 456.445312,154.16748 C456.796877,154.439943 457.262692,154.576172 457.842773,154.576172 C458.405276,154.576172 458.833006,154.469239 459.125977,154.255371 C459.418947,154.041503 459.56543,153.76172 459.56543,153.416016 Z M403.517578,172.833984 C403.388671,174.199226 402.88477,175.264156 402.005859,176.028809 C401.126949,176.793461 399.958015,177.175781 398.499023,177.175781 C397.479487,177.175781 396.581547,176.934084 395.805176,176.450684 C395.028805,175.967283 394.42969,175.280278 394.007812,174.389648 C393.585935,173.499019 393.366211,172.46485 393.348633,171.287109 L393.348633,170.091797 C393.348633,168.88476 393.562498,167.821294 393.990234,166.901367 C394.417971,165.981441 395.031734,165.272463 395.831543,164.774414 C396.631352,164.276365 397.555659,164.027344 398.604492,164.027344 C400.016609,164.027344 401.153316,164.411129 402.014648,165.178711 C402.875981,165.946293 403.376952,167.030266 403.517578,168.430664 L401.302734,168.430664 C401.197265,167.510738 400.929201,166.84717 400.498535,166.439941 C400.067869,166.032713 399.436528,165.829102 398.604492,165.829102 C397.63769,165.829102 396.895022,166.182125 396.376465,166.888184 C395.857908,167.594242 395.592773,168.629876 395.581055,169.995117 L395.581055,171.128906 C395.581055,172.511726 395.828611,173.566403 396.32373,174.292969 C396.81885,175.019535 397.543941,175.382812 398.499023,175.382812 C399.372075,175.382812 400.028318,175.186525 400.467773,174.793945 C400.907229,174.401365 401.185546,173.748051 401.302734,172.833984 L403.517578,172.833984 Z M407.569336,177 L405.433594,177 L405.433594,167.490234 L407.569336,167.490234 L407.569336,177 Z M405.301758,165.020508 C405.301758,164.692381 405.405761,164.419923 405.61377,164.203125 C405.821778,163.986327 406.119139,163.87793 406.505859,163.87793 C406.89258,163.87793 407.191405,163.986327 407.402344,164.203125 C407.613282,164.419923 407.71875,164.692381 407.71875,165.020508 C407.71875,165.342775 407.613282,165.610839 407.402344,165.824707 C407.191405,166.038575 406.89258,166.145508 406.505859,166.145508 C406.119139,166.145508 405.821778,166.038575 405.61377,165.824707 C405.405761,165.610839 405.301758,165.342775 405.301758,165.020508 Z M412.570312,165.178711 L412.570312,167.490234 L414.249023,167.490234 L414.249023,169.072266 L412.570312,169.072266 L412.570312,174.380859 C412.570312,174.744142 412.642089,175.006347 412.785645,175.16748 C412.9292,175.328614 413.185545,175.40918 413.554688,175.40918 C413.800782,175.40918 414.049803,175.379883 414.301758,175.321289 L414.301758,176.973633 C413.815427,177.108399 413.346682,177.175781 412.895508,177.175781 C411.254875,177.175781 410.43457,176.270517 410.43457,174.459961 L410.43457,169.072266 L408.870117,169.072266 L408.870117,167.490234 L410.43457,167.490234 L410.43457,165.178711 L412.570312,165.178711 Z M419.206055,173.941406 L421.139648,167.490234 L423.416016,167.490234 L419.636719,178.441406 C419.056638,180.041024 418.072273,180.84082 416.683594,180.84082 C416.373045,180.84082 416.030275,180.788086 415.655273,180.682617 L415.655273,179.030273 L416.05957,179.056641 C416.598636,179.056641 417.004393,178.958497 417.276855,178.762207 C417.549318,178.565917 417.764648,178.23633 417.922852,177.773438 L418.230469,176.956055 L414.890625,167.490234 L417.193359,167.490234 L419.206055,173.941406 Z" id="A-Prosperous-City" fill="#FFFFFF"></path>
                <path d="M118.371094,411.020508 L113.414062,411.020508 L112.376953,414 L110.06543,414 L114.899414,401.203125 L116.894531,401.203125 L121.737305,414 L119.416992,414 L118.371094,411.020508 Z M114.038086,409.227539 L117.74707,409.227539 L115.892578,403.918945 L114.038086,409.227539 Z M137.707031,410.835938 L139.675781,401.203125 L141.881836,401.203125 L138.928711,414 L136.801758,414 L134.367188,404.657227 L131.879883,414 L129.744141,414 L126.791016,401.203125 L128.99707,401.203125 L130.983398,410.818359 L133.426758,401.203125 L135.290039,401.203125 L137.707031,410.835938 Z M147.216797,414.175781 C145.863274,414.175781 144.766117,413.749516 143.925293,412.896973 C143.084468,412.044429 142.664062,410.909187 142.664062,409.491211 L142.664062,409.227539 C142.664062,408.278316 142.847166,407.43018 143.213379,406.683105 C143.579592,405.936031 144.093747,405.354494 144.755859,404.938477 C145.417972,404.522459 146.156246,404.314453 146.970703,404.314453 C148.265631,404.314453 149.26611,404.727535 149.972168,405.553711 C150.678226,406.379887 151.03125,407.548821 151.03125,409.060547 L151.03125,409.921875 L144.817383,409.921875 C144.881836,410.707035 145.144041,411.328123 145.604004,411.785156 C146.063967,412.24219 146.642575,412.470703 147.339844,412.470703 C148.318364,412.470703 149.115231,412.075199 149.730469,411.28418 L150.881836,412.382812 C150.500975,412.951175 149.992679,413.392088 149.356934,413.705566 C148.721188,414.019045 148.007816,414.175781 147.216797,414.175781 Z M146.961914,406.02832 C146.375974,406.02832 145.902834,406.233396 145.54248,406.643555 C145.182127,407.053713 144.952149,407.624996 144.852539,408.357422 L148.921875,408.357422 L148.921875,408.199219 C148.875,407.484371 148.684572,406.943849 148.350586,406.577637 C148.0166,406.211424 147.553714,406.02832 146.961914,406.02832 Z M154.959961,414 L152.824219,414 L152.824219,400.5 L154.959961,400.5 L154.959961,414 Z M159.556641,414 L157.420898,414 L157.420898,400.5 L159.556641,400.5 L159.556641,414 Z M171.272461,409.069336 L168.793945,409.069336 L168.793945,414 L166.570313,414 L166.570313,401.203125 L171.070313,401.203125 C172.546882,401.203125 173.686519,401.534176 174.489258,402.196289 C175.291996,402.858402 175.693359,403.8164 175.693359,405.070312 C175.693359,405.925786 175.486818,406.642087 175.07373,407.219238 C174.660642,407.79639 174.084965,408.240233 173.34668,408.550781 L176.220703,413.885742 L176.220703,414 L173.838867,414 L171.272461,409.069336 Z M168.793945,407.285156 L171.079102,407.285156 C171.829105,407.285156 172.415037,407.096193 172.836914,406.718262 C173.258791,406.34033 173.469727,405.823245 173.469727,405.166992 C173.469727,404.481442 173.274904,403.951174 172.885254,403.576172 C172.495604,403.20117 171.914066,403.007813 171.140625,402.996094 L168.793945,402.996094 L168.793945,407.285156 Z M183.357422,413.068359 C182.730466,413.806644 181.83985,414.175781 180.685547,414.175781 C179.654292,414.175781 178.873538,413.874026 178.343262,413.270508 C177.812986,412.666989 177.547852,411.793951 177.547852,410.651367 L177.547852,404.490234 L179.683594,404.490234 L179.683594,410.625 C179.683594,411.832037 180.184565,412.435547 181.186523,412.435547 C182.223638,412.435547 182.923826,412.06348 183.287109,411.319336 L183.287109,404.490234 L185.422852,404.490234 L185.422852,414 L183.410156,414 L183.357422,413.068359 Z M189.580078,404.490234 L189.641602,405.588867 C190.34473,404.739254 191.267572,404.314453 192.410156,404.314453 C194.390635,404.314453 195.398437,405.448231 195.433594,407.71582 L195.433594,414 L193.297852,414 L193.297852,407.838867 C193.297852,407.235349 193.167482,406.788576 192.906738,406.498535 C192.645995,406.208495 192.21973,406.063477 191.62793,406.063477 C190.766597,406.063477 190.125002,406.453121 189.703125,407.232422 L189.703125,414 L187.567383,414 L187.567383,404.490234 L189.580078,404.490234 Z M212.0625,409.833984 C211.933593,411.199226 211.429692,412.264156 210.550781,413.028809 C209.671871,413.793461 208.502937,414.175781 207.043945,414.175781 C206.024409,414.175781 205.126469,413.934084 204.350098,413.450684 C203.573727,412.967283 202.974611,412.280278 202.552734,411.389648 C202.130857,410.499019 201.911133,409.46485 201.893555,408.287109 L201.893555,407.091797 C201.893555,405.88476 202.10742,404.821294 202.535156,403.901367 C202.962893,402.981441 203.576656,402.272463 204.376465,401.774414 C205.176274,401.276365 206.100581,401.027344 207.149414,401.027344 C208.56153,401.027344 209.698238,401.411129 210.55957,402.178711 C211.420903,402.946293 211.921874,404.030266 212.0625,405.430664 L209.847656,405.430664 C209.742187,404.510738 209.474123,403.84717 209.043457,403.439941 C208.612791,403.032713 207.981449,402.829102 207.149414,402.829102 C206.182612,402.829102 205.439944,403.182125 204.921387,403.888184 C204.402829,404.594242 204.137695,405.629876 204.125977,406.995117 L204.125977,408.128906 C204.125977,409.511726 204.373533,410.566403 204.868652,411.292969 C205.363772,412.019535 206.088862,412.382812 207.043945,412.382812 C207.916997,412.382812 208.57324,412.186525 209.012695,411.793945 C209.452151,411.401365 209.730468,410.748051 209.847656,409.833984 L212.0625,409.833984 Z M216.114258,414 L213.978516,414 L213.978516,404.490234 L216.114258,404.490234 L216.114258,414 Z M213.84668,402.020508 C213.84668,401.692381 213.950683,401.419923 214.158691,401.203125 C214.3667,400.986327 214.664061,400.87793 215.050781,400.87793 C215.437502,400.87793 215.736327,400.986327 215.947266,401.203125 C216.158204,401.419923 216.263672,401.692381 216.263672,402.020508 C216.263672,402.342775 216.158204,402.610839 215.947266,402.824707 C215.736327,403.038575 215.437502,403.145508 215.050781,403.145508 C214.664061,403.145508 214.3667,403.038575 214.158691,402.824707 C213.950683,402.610839 213.84668,402.342775 213.84668,402.020508 Z M221.115234,402.178711 L221.115234,404.490234 L222.793945,404.490234 L222.793945,406.072266 L221.115234,406.072266 L221.115234,411.380859 C221.115234,411.744142 221.187011,412.006347 221.330566,412.16748 C221.474122,412.328614 221.730467,412.40918 222.099609,412.40918 C222.345704,412.40918 222.594725,412.379883 222.84668,412.321289 L222.84668,413.973633 C222.360349,414.108399 221.891604,414.175781 221.44043,414.175781 C219.799796,414.175781 218.979492,413.270517 218.979492,411.459961 L218.979492,406.072266 L217.415039,406.072266 L217.415039,404.490234 L218.979492,404.490234 L218.979492,402.178711 L221.115234,402.178711 Z M227.750977,410.941406 L229.68457,404.490234 L231.960938,404.490234 L228.181641,415.441406 C227.60156,417.041024 226.617194,417.84082 225.228516,417.84082 C224.917967,417.84082 224.575197,417.788086 224.200195,417.682617 L224.200195,416.030273 L224.604492,416.056641 C225.143557,416.056641 225.549315,415.958497 225.821777,415.762207 C226.09424,415.565917 226.30957,415.23633 226.467773,414.773438 L226.775391,413.956055 L223.435547,404.490234 L225.738281,404.490234 L227.750977,410.941406 Z" id="A-Well-Run-City" fill="#FFFFFF"></path>
            </g>
        </g>
    </g>
</svg>